<svg xmlns="http://www.w3.org/2000/svg" viewBox="0 0 417.86 422.35"><defs><style>.cls-1{fill:#d6abdc;}.cls-2,.cls-3,.cls-4,.cls-5{fill:none;}.cls-3{stroke:#d6abdc;stroke-width:5px;}.cls-3,.cls-4,.cls-5{stroke-linecap:round;}.cls-3,.cls-5{stroke-miterlimit:10;}.cls-4,.cls-5{stroke:#7b667f;stroke-width:8px;}.cls-4{stroke-linejoin:round;}</style></defs><title>webdesign_lilla</title><g id="Layer_2" data-name="Layer 2"><g id="Layer_1-2" data-name="Layer 1"><path class="cls-1" d="M213,122.58q64.49,0,129,0c25.73,0,42.69,16.84,42.7,42.46q.06,79.49,0,159c0,25.29-17.05,42.31-42.38,42.32q-129.46,0-258.95,0c-25.39,0-42.4-17-42.41-42.24q0-79.74,0-159.48c0-25,17-42,42.08-42Q148,122.55,213,122.58Zm-.16,228H342.34c16.68,0,26.6-10,26.6-26.81q0-79.5,0-159c0-16.45-10-26.42-26.45-26.42H83c-16.42,0-26.3,10-26.3,26.52q0,79.49,0,159c0,16.81,9.88,26.71,26.65,26.71Z"/><path class="cls-1" d="M221.73,406.58c12.88,0,25-.28,37.14.22,2.75.11,6.23,2.36,7.79,4.69,1.13,1.67.35,5.57-.93,7.62-1.09,1.72-4.14,3.07-6.32,3.09q-45.45.29-90.9.09c-5.07,0-8.55-3.48-8.52-7.89s3.48-7.74,8.6-7.79c10.49-.1,21,0,31.46,0H206c0-6.78,0-13.05,0-19.33,0-6.86,2.73-10.56,7.77-10.64s8,3.68,8,10.41C221.75,393.32,221.73,399.62,221.73,406.58Z"/><path class="cls-2" d="M212.85,350.58H83.36c-16.77,0-26.65-9.9-26.65-26.71q0-79.5,0-159c0-16.56,9.88-26.52,26.3-26.52H342.49c16.46,0,26.44,10,26.45,26.42q0,79.48,0,159c0,16.81-9.92,26.81-26.6,26.81ZM78.23,157.71V300.92H349.38V157.71Z"/><path class="cls-1" d="M78.23,157.71H349.38V300.92H78.23Zm7.88,7.79V293.17H341.58V165.5Z"/><path class="cls-2" d="M86.11,165.5H341.58V293.17H86.11Z"/><path class="cls-3" d="M28.25,139.78s-31.06-7-25-42.95S36.51,68.36,36.51,68.36,16.85,35.14,46,14.12,101.59,29,100.92,34.46c0,0,39.32-22.37,63.72,11.52s-10.17,63.73-10.17,63.73"/><polygon class="cls-1" points="69.16 57.86 111.64 74.25 97.48 79.84 108.66 90.47 101.77 96.24 90.4 85.06 84.81 101.09 69.16 57.86"/><path class="cls-3" d="M223.22,110.9,235.8,65.29,217,60.68l5.38-18.45,16.92,4.35S245.47,2.24,266.48,2.5s30.24,5,33.06,6.24l-4.35,16.57s-13.21-4.88-18.54-2.2c-3.89,2-5.55-1.64-11.45,29.11L287.54,57l-5.17,18.54-21.78-5.12-10.25,42.8"/><path class="cls-3" d="M346.73,104.46l-9.28,4-5.31-8.4L341.43,95s-2.21-10-2-11.3-7.3-2.21-7.3-2.21l3.54-14.15,8,2.05s5.3-8.69,7.51-8.69-4-7.07-4-7.07l13.27-7.08,2.65,8s8.41-1.77,11.5-.88l4-9.29,13.71,5.33-3.1,7.05s8.41,4.87,8.41,7.08l8-3.54,7.07,12.61-8.4,3.53S408.2,85,406,88.1l8.84,2.65s-3.09,11.94-5.3,14.15l-8-2.66S396.7,112,394.05,112l3.54,7.07s-6.64,5.75-8,5.75-7.08-8-7.08-8"/><circle class="cls-3" cx="212.56" cy="331.13" r="11.33"/><polyline class="cls-4" points="179.33 213.88 147.09 234.82 179.33 254.57"/><polyline class="cls-4" points="245.8 254.57 278.04 233.63 245.8 213.88"/><line class="cls-5" x1="197.99" y1="258.63" x2="227.14" y2="209.82"/></g></g></svg>