<svg xmlns="http://www.w3.org/2000/svg" xmlns:xlink="http://www.w3.org/1999/xlink" viewBox="0 0 807.06 699.04"><defs><style>.cls-1{fill:none;}.cls-2{clip-path:url(#clip-path);}.cls-3{fill:#fff;}.cls-4{fill:#cedcc9;}</style><clipPath id="clip-path" transform="translate(0 0)"><rect class="cls-1" width="807.06" height="699.04"/></clipPath></defs><title>digital_mf_mix</title><g id="Layer_2" data-name="Layer 2"><g id="Layer_1-2" data-name="Layer 1"><g class="cls-2"><path class="cls-3" d="M236.78,386.19c-86.16,0-156.24,66.53-156.24,148.31s70.08,148.29,156.24,148.29S393,616.27,393,534.5,322.93,386.19,236.78,386.19m0,308.8C143.55,695,67.69,623,67.69,534.5S143.55,374,236.78,374,405.86,446,405.86,534.5,330,695,236.78,695" transform="translate(0 0)"/><path class="cls-4" d="M203.87,522.83V543.5l29.69,0c-4.65,13.41-11.88,20.71-29.69,20.71-18,0-32.08-13.88-32.08-31s14.06-31,32.08-31c9.52,0,15.68,3.17,21.32,7.61,4.53-4.3,4.14-4.91,15.64-15.23a56.32,56.32,0,0,0-37-13.6c-30.32,0-54.92,23.38-54.92,52.23s24.6,52.21,54.92,52.21c45.33,0,56.42-37.54,52.74-62.55Z" transform="translate(0 0)"/></g><polygon class="cls-4" points="302.82 523.86 302.82 505.76 289.23 505.76 289.23 523.86 269.67 523.86 269.67 536.79 289.23 536.79 289.23 555.4 302.82 555.4 302.82 536.79 321.86 536.79 321.86 523.86 302.82 523.86"/><g class="cls-2"><path class="cls-3" d="M524.2,381.38c-86.62,0-157.1,68.44-157.1,152.56s70.48,152.55,157.1,152.55,157.1-68.44,157.1-152.55S610.82,381.38,524.2,381.38m0,317.66c-93.75,0-170-74.08-170-165.1s76.28-165.12,170-165.12,170,74.07,170,165.12S618,699,524.2,699" transform="translate(0 0)"/><path class="cls-4" d="M602,599.3a8.6,8.6,0,0,1-8.72,8.49H553V548.3h20.57l3.08-23.17H553v-14.8c0-6.72,1.92-11.29,11.85-11.29h12.62V478.31a174.43,174.43,0,0,0-18.4-.91c-18.23,0-30.72,10.79-30.72,30.63v17.1H507.72V548.3h20.61v59.49H452.58a8.62,8.62,0,0,1-8.73-8.49V462.67a8.6,8.6,0,0,1,8.73-8.47H593.3a8.59,8.59,0,0,1,8.72,8.47Z" transform="translate(0 0)"/></g><rect class="cls-4" x="88.6" y="265.75" width="28.17" height="84.72"/><g class="cls-2"><path class="cls-4" d="M193.73,264.94c-16.14,0-26.24,8.3-28.12,14.1v-13.3H134c.42,7.08,0,84.73,0,84.73h31.64V304.62c0-2.55-.12-5.09.71-6.91,2.16-5.11,6.83-10.39,15.23-10.39,11,0,16,7.82,16,19.3v43.85h31.95v-47.1c0-26.25-15.72-38.43-35.75-38.43" transform="translate(0 0)"/><path class="cls-4" d="M102.17,225.76C91.76,225.76,85,232.1,85,240.47c0,8.2,6.63,14.69,16.81,14.69H102c10.58,0,17.19-6.51,17.19-14.71-.2-8.37-6.61-14.69-17-14.69" transform="translate(0 0)"/><path class="cls-3" d="M154.61,151.49c-78.78,0-142.85,60.82-142.85,135.6s64.07,135.6,142.85,135.6,142.86-60.84,142.86-135.6-64.09-135.6-142.86-135.6m0,282.36C69.37,433.85,0,368,0,287.09S69.37,140.32,154.61,140.32s154.62,65.85,154.62,146.77S239.86,433.85,154.61,433.85" transform="translate(0 0)"/><path class="cls-4" d="M465.86,94.58a69.73,69.73,0,0,1-21,7.46,34.17,34.17,0,0,0-24.17-9.7c-18.26,0-33.09,13.76-33.09,30.75a28.63,28.63,0,0,0,.85,7c-27.5-1.29-51.89-13.52-68.24-32.17a29.16,29.16,0,0,0-4.49,15.5c0,10.67,5.86,20.09,14.73,25.6a35.17,35.17,0,0,1-15-3.84v.39c0,14.89,11.42,27.33,26.57,30.14a34.35,34.35,0,0,1-8.73,1.09,35.27,35.27,0,0,1-6.22-.54c4.2,12.2,16.43,21.11,30.92,21.36a69.81,69.81,0,0,1-41.12,13.17,73.41,73.41,0,0,1-7.9-.42,99.14,99.14,0,0,0,50.75,13.8c60.9,0,94.2-46.86,94.2-87.51,0-1.36,0-2.69-.1-4a64.2,64.2,0,0,0,16.51-15.93,69.38,69.38,0,0,1-19,4.85,31.32,31.32,0,0,0,14.54-17" transform="translate(0 0)"/><path class="cls-3" d="M391.62,11.72c-86.63,0-157.1,63.85-157.1,142.35S305,296.44,391.62,296.44s157.1-63.85,157.1-142.37S478.24,11.72,391.62,11.72m0,296.44c-93.76,0-170-69.13-170-154.09S297.86,0,391.62,0s170,69.12,170,154.07-76.28,154.09-170,154.09" transform="translate(0 0)"/><path class="cls-4" d="M705.31,347.51a4.71,4.71,0,0,1-4.93,4.45H581.92a4.71,4.71,0,0,1-4.93-4.45V280.8h19.74c-2.57,3.33-3.44,9.55-3.44,13.51,0,23.81,21.54,43.18,48.05,43.18s48-19.37,48-43.18c0-4-.62-10.08-3.82-13.51h19.74Zm-64-80.5c16.77,0,30.37,12.23,30.37,27.3s-13.6,27.3-30.37,27.3S611,309.39,611,294.31s13.6-27.3,30.39-27.3m34.37-21.78a4.71,4.71,0,0,1,4.93-4.46h14.81a4.71,4.71,0,0,1,4.93,4.46v13.34a4.71,4.71,0,0,1-4.93,4.44H680.64a4.71,4.71,0,0,1-4.93-4.44ZM701.35,223H581c-10.37,0-18.77,7.55-18.77,16.87V348.42c0,9.32,8.4,16.88,18.77,16.88h120.4c10.37,0,18.77-7.56,18.77-16.88V239.86c0-9.32-8.4-16.87-18.77-16.87" transform="translate(0 0)"/><path class="cls-3" d="M637,153c-86.62,0-157.1,63.49-157.1,141.54S550.41,436.08,637,436.08s157.1-63.5,157.1-141.56S723.65,153,637,153m0,294.74c-93.75,0-170-68.72-170-153.2s76.28-153.2,170-153.2,170,68.74,170,153.2-76.27,153.2-170,153.2" transform="translate(0 0)"/></g></g></g></svg>