<svg xmlns="http://www.w3.org/2000/svg" viewBox="0 0 627.6 739.83"><defs><style>.cls-1{fill:#cedcc9;}.cls-2{fill:#fff;}</style></defs><title>grafisk_design_mix</title><g id="Layer_2" data-name="Layer 2"><g id="Layer_1-2" data-name="Layer 1"><path class="cls-1" d="M367.32,251c6.68-7.24,10.48-97.65-8.26-173.32-12.49-50.4,4.67-79,31.05-77.59C411.51,1.22,437,30.44,421.4,75.37c-23.89,68.91-15.88,148.36-13.77,169,2.65,25.78,38.34,41.58,63.22,27.24,14.34-8.26,41-22.37,64.48-97.4,11.17-35.78,42.15-54.31,59.16-39.88,13.58,11.52,17.8,49-12.89,69-45.91,29.89-59.66,65.13-68.88,83.79a31,31,0,0,0,3.2,32.63c15.4,20.09,34.3,52.61,17.26,75-26.28,34.55,12.71,25.81,41,33.29,43.4,11.5,44.13,88.3-3.77,67.18-19.8-8.73-27-36.15-49.6-48.1C494.58,433.21,440,435,463.91,474c18.06,29.41,39,15.11,54.31,30,20.39,19.83-8,57-30,34.11-15.34-15.93-18.75-22.78-60.08-48.31-25.13-15.53-31.72,13.61-39.43,25.91-15.48,24.67-3.92,57.19,5.28,72.61,9.78,16.41,37,101.83-6.88,98.18-41-3.42-39.33-75.74-39.33-86.3s-1.32-87.13-31.68-76.57-40.52,7.86-58.09,64.69c-5.68,18.4-15.79,37.53-33.68,26.14-20.05-12.75,5.14-41.38,8.08-46.37C255.68,528.65,284,444.22,219,435.77c-99.84-13-77.92,32.5-93.91,51.79-20.53,24.78-67.17,25-77.16,6.31-21.07-39.3,36.76-61.45,62.16-67.8,39-9.75,44.78-55.87,44.78-74.35s-77-41.64-68.39-68.35c7.54-23.57,52.08-9.43,66-1.32,19,11.06,94,17.47,99-37.72,2.31-25.58-35.08-50.48-46.2-71.85-7.25-13.93-5.39-29.1,14.47-36.4,15.83-5.83,33-5.25,38.33,16.6,14,56.8,23.77,60.21,35.65,72.6C324.93,257.87,361.21,257.58,367.32,251Z"/><path class="cls-1" d="M218.62,630.88c-3-5.2-36.24,8.83-44.36,27.71-12.77,29.7,21.51,25.94,27.78,20C215.83,665.65,221.58,636.08,218.62,630.88Z"/><path class="cls-1" d="M69.64,257.87c0,13.8-13.49,25-30.12,25S0,267,0,253.15s22.89-20.26,39.52-20.26S69.64,244.07,69.64,257.87Z"/><path class="cls-2" d="M463.56,437.5l-12.21,44.82H411.16l52.4-174.63h50.86l53.15,174.63h-41.7L512.64,437.5ZM507.05,408l-10.68-37c-3.06-10.37-6.11-23.32-8.65-33.68h-.51c-2.54,10.36-5.09,23.58-7.88,33.68l-10.18,37Z"/><path class="cls-2" d="M627.6,320.39c0,10.88-8.13,19.69-20.85,19.69-12.21,0-20.35-8.81-20.09-19.69-.26-11.41,7.88-19.95,20.35-19.95S627.35,309,627.6,320.39ZM587.68,482.32V355.62h38.65v126.7Z"/><path class="cls-2" d="M103,150.74c11.68-2,28.08-3.48,51.2-3.48,23.37,0,40,4.47,51.21,13.42,10.68,8.45,17.89,22.37,17.89,38.78s-5.47,30.32-15.41,39.77c-12.92,12.17-32.06,17.64-54.43,17.64a96.76,96.76,0,0,1-12.93-.74V316H103Zm37.53,76.06a58.32,58.32,0,0,0,12.68,1c20.13,0,32.56-10.19,32.56-27.34,0-15.41-10.69-24.61-29.58-24.61-7.7,0-12.92.75-15.66,1.49Z"/><path class="cls-2" d="M240.74,283c7,4.23,21.37,9.2,32.56,9.2,11.43,0,16.15-4,16.15-10.19s-3.73-9.2-17.89-13.92c-25.11-8.45-34.8-22.12-34.55-36.54,0-22.62,19.39-39.77,49.46-39.77,14.17,0,26.85,3.23,34.3,7l-6.71,26.1c-5.46-3-15.91-7-26.34-7-9.2,0-14.42,3.73-14.42,9.94,0,5.72,4.72,8.7,19.64,13.92,23.11,7.95,32.81,19.64,33.05,37.53,0,22.62-17.89,39.28-52.69,39.28-15.91,0-30.08-3.48-39.28-8.46Z"/><path class="cls-2" d="M132.25,403.78V576H93.35V403.78Z"/><path class="cls-2" d="M284.28,394.57V538.72c0,14.06.51,28.88,1,37.32H251l-1.79-18.4h-.5c-7.89,14.05-22.89,21.21-38.9,21.21-29.49,0-53.14-25.31-53.14-64.15-.25-42.17,25.94-66.45,55.68-66.45,15.26,0,27.2,5.36,32.8,14.05h.5V394.57ZM245.63,504a64.21,64.21,0,0,0-.5-6.9c-2.29-10.48-10.69-19.17-22.63-19.17-17.54,0-26.69,15.85-26.69,35.53,0,21.21,10.42,34.5,26.43,34.5,11.19,0,20.09-7.66,22.38-18.65a33.44,33.44,0,0,0,1-8.95Z"/><path class="cls-2" d="M370.9,572.67h37.94V708.08h66.47v31.75H370.9Z"/><path class="cls-2" d="M496.39,658.48c0-17.85-.5-29.51-1-39.93h32.48l1.24,22.32h1c6.2-17.61,21.07-25,32.73-25a39.38,39.38,0,0,1,7.94.49v35.47a53.72,53.72,0,0,0-10.17-1c-13.89,0-23.31,7.44-25.79,19.1a44.05,44.05,0,0,0-.75,8.43v61.51H496.39Z"/></g></g></svg>