<svg xmlns="http://www.w3.org/2000/svg" viewBox="0 0 742.5 489.14"><defs><style>.cls-1,.cls-5,.cls-6,.cls-7{fill:#fff;}.cls-2,.cls-4,.cls-8{fill:none;}.cls-3{fill:#cedcc9;}.cls-4,.cls-5,.cls-6,.cls-7,.cls-8{stroke:#fff;stroke-miterlimit:10;}.cls-4,.cls-8{stroke-linecap:round;}.cls-4,.cls-7{stroke-width:3px;}.cls-5{stroke-width:2px;}.cls-8{stroke-width:5px;}</style></defs><title>ux_design_mix</title><g id="Layer_2" data-name="Layer 2"><g id="Layer_1-2" data-name="Layer 1"><path class="cls-1" d="M274.33,0Q377.14,0,480,0C521,0,548,26.87,548,67.7q.09,126.72,0,253.43c0,40.33-27.19,67.46-67.56,67.47q-206.42.07-412.83,0C27.18,388.59.05,361.55,0,321.26Q0,194.14,0,67c0-39.85,27.18-67,67.08-67Q170.73,0,274.33,0Zm-.25,363.48H480.51c26.59,0,42.4-16,42.41-42.76q0-126.72,0-253.46c0-26.21-15.91-42.12-42.15-42.12q-206.83,0-413.68,0C40.9,25.15,25.16,41,25.16,67.43q0,126.73,0,253.46c0,26.8,15.76,42.59,42.48,42.6Z"/><path class="cls-1" d="M742.49,367.7q0,45.62,0,91.22c0,18.2-11.91,30.19-30,30.21q-56.22,0-112.43,0c-17.89,0-29.93-12.06-29.94-30q0-91.57,0-183.15c0-17.95,12-30,29.88-30q56.4,0,112.79,0c17.68,0,29.71,12.05,29.72,29.76Q742.53,321.73,742.49,367.7Zm-161.26-.12q0,45.8,0,91.59c0,11.8,7.07,18.81,19,18.81H712.65c11.63,0,18.69-7.06,18.69-18.7q0-91.77,0-183.53c0-11.61-7.05-18.6-18.76-18.6H600.13c-11.89,0-18.89,7-18.89,18.85Q581.23,321.79,581.23,367.58Z"/><path class="cls-1" d="M288.24,452.77c20.53,0,39.89-.45,59.2.35,4.38.18,9.93,3.77,12.43,7.48,1.79,2.66.56,8.88-1.5,12.14-1.72,2.74-6.58,4.9-10.07,4.92-48.3.32-96.6.28-144.9.16-8.1,0-13.64-5.55-13.59-12.59s5.54-12.33,13.71-12.4c16.71-.17,33.44-.06,50.16-.06h9.42c0-10.8,0-20.81,0-30.81,0-10.95,4.34-16.84,12.38-17s12.72,5.86,12.75,16.6C288.26,431.63,288.24,441.67,288.24,452.77Z"/><path class="cls-2" d="M274.08,363.49H67.64c-26.72,0-42.48-15.8-42.48-42.6q0-126.73,0-253.46C25.16,41,40.9,25.15,67.08,25.15q206.85,0,413.68,0c26.24,0,42.15,15.91,42.15,42.12q0,126.74,0,253.46c0,26.8-15.82,42.75-42.41,42.76ZM59.47,56v228.3H491.73V56Z"/><path class="cls-3" d="M59.47,56H491.73v228.3H59.47ZM72,68.44V272H479.31V68.44Z"/><path class="cls-3" d="M716.29,273V441.45H597.58V273Zm-6.46,4.9H604V436.61H709.83Z"/><path class="cls-2" d="M72,68.44H479.31V272H72Z"/><circle class="cls-4" cx="656.94" cy="460.07" r="10.13"/><path class="cls-5" d="M101.24,84.28H274v84.3H101.24Zm5,4.59V164h162.8V88.87Z"/><path class="cls-6" d="M614.48,288.91h85.8v63.14h-85.8Zm2.5,3.44v56.29h80.83V292.35Z"/><path class="cls-6" d="M614.5,363.49h85.79v63.15H614.5Zm2.49,3.44v56.29h80.84V366.93Z"/><path class="cls-5" d="M101.24,189.54h70.35v68H101.24Zm2.05,3.7v60.64h66.28V193.24Z"/><path class="cls-5" d="M195.71,189.53h70.35v68H195.71Zm2,3.7v60.64H264V193.23Z"/><path class="cls-5" d="M290.17,189.52h70.35v68H290.17Zm2.05,3.7v60.63H358.5V193.22Z"/><path class="cls-5" d="M384.64,189.55H455v68H384.64Zm2,3.7v60.64H453V193.25Z"/><line class="cls-7" x1="307.3" y1="100.48" x2="452.96" y2="100.48"/><line class="cls-7" x1="307.3" y1="116.76" x2="452.96" y2="116.76"/><line class="cls-7" x1="307.3" y1="133.04" x2="452.96" y2="133.04"/><line class="cls-7" x1="307.3" y1="149.31" x2="452.96" y2="149.31"/><circle class="cls-8" cx="275.67" cy="331.65" r="18.06"/><polygon class="cls-1" points="224.82 151.65 292.54 177.79 269.97 186.7 287.79 203.63 276.8 212.84 258.68 195.02 249.77 220.56 224.82 151.65"/></g></g></svg>