<svg xmlns="http://www.w3.org/2000/svg" viewBox="0 0 465.75 306.83"><defs><style>.cls-1,.cls-4,.cls-5,.cls-6{fill:#cedcc9;}.cls-2,.cls-3,.cls-7{fill:none;}.cls-3,.cls-4,.cls-5,.cls-6,.cls-7{stroke:#cedcc9;stroke-miterlimit:10;}.cls-3,.cls-7{stroke-linecap:round;}.cls-3,.cls-6{stroke-width:3px;}.cls-4{stroke-width:2px;}.cls-7{stroke-width:5px;}.cls-8{fill:#a7bea3;}</style></defs><title>ux_design</title><g id="Layer_2" data-name="Layer 2"><g id="Layer_1-2" data-name="Layer 1"><path class="cls-1" d="M172.08,0q64.48,0,129,0c25.73,0,42.69,16.84,42.71,42.46q0,79.48,0,159c0,25.29-17.05,42.31-42.37,42.32q-129.48,0-259,0c-25.38,0-42.4-17-42.41-42.24Q0,121.78,0,42C0,17,17.07,0,42.1,0Q107.1,0,172.08,0Zm-.16,228H301.41c16.68,0,26.6-10,26.6-26.81q0-79.5,0-159c0-16.45-10-26.42-26.45-26.42H42.08c-16.42,0-26.3,10-26.3,26.52q0,79.49,0,159c0,16.81,9.89,26.71,26.65,26.71Z"/><path class="cls-1" d="M465.74,230.65q0,28.6,0,57.22c0,11.41-7.47,18.94-18.83,18.94q-35.27,0-70.53,0c-11.22,0-18.77-7.56-18.78-18.8q0-57.43,0-114.88c0-11.27,7.53-18.81,18.74-18.82h70.75c11.1,0,18.64,7.57,18.65,18.67Q465.76,201.81,465.74,230.65Zm-101.15-.07V288c0,7.4,4.44,11.8,11.9,11.8H447c7.29,0,11.72-4.43,11.72-11.73V173c0-7.29-4.42-11.67-11.77-11.67H376.45c-7.46,0-11.86,4.39-11.86,11.83Z"/><path class="cls-1" d="M180.8,284c12.88,0,25-.28,37.14.22,2.75.11,6.23,2.36,7.79,4.69,1.13,1.67.36,5.57-.93,7.62-1.09,1.72-4.13,3.07-6.32,3.09q-45.45.28-90.9.09c-5.07,0-8.55-3.48-8.52-7.89s3.48-7.74,8.6-7.79c10.49-.1,21,0,31.46,0H165c0-6.78,0-13.05,0-19.33,0-6.86,2.73-10.56,7.77-10.64s8,3.67,8,10.41C180.82,270.75,180.8,277.05,180.8,284Z"/><path class="cls-2" d="M171.92,228H42.43c-16.76,0-26.65-9.9-26.65-26.71q0-79.5,0-159c0-16.56,9.88-26.52,26.3-26.52H301.56C318,15.78,328,25.75,328,42.2q0,79.48,0,159C328,218,318.09,228,301.41,228ZM37.3,35.14V178.35H308.45V35.14Z"/><path class="cls-1" d="M37.3,35.14H308.45V178.35H37.3Zm7.89,7.79V170.6H300.66V42.93Z"/><path class="cls-1" d="M449.31,171.23V276.91H374.85V171.23Zm-4.05,3.07H378.87v99.57h66.39Z"/><path class="cls-2" d="M45.19,42.93H300.66V170.6H45.19Z"/><circle class="cls-3" cx="412.08" cy="288.59" r="6.35"/><path class="cls-4" d="M63.51,52.87H171.89v52.88H63.51Zm3.15,2.87v47.15H168.78V55.74Z"/><path class="cls-5" d="M385.45,181.23h53.81v39.6H385.45Zm1.56,2.15v35.31h50.71V183.38Z"/><path class="cls-5" d="M385.46,228h53.81v39.61H385.46Zm1.56,2.15v35.32h50.71V230.16Z"/><path class="cls-4" d="M63.51,118.89h44.13v42.67H63.51Zm1.28,2.33v38h41.58v-38Z"/><path class="cls-4" d="M122.76,118.89h44.13v42.66H122.76Zm1.29,2.32v38h41.57v-38Z"/><path class="cls-4" d="M182,118.88h44.13v42.66H182Zm1.28,2.32v38h41.58v-38Z"/><path class="cls-4" d="M241.27,118.9H285.4v42.66H241.27Zm1.28,2.32v38h41.58v-38Z"/><line class="cls-6" x1="192.76" y1="63.03" x2="284.13" y2="63.03"/><line class="cls-6" x1="192.76" y1="73.24" x2="284.13" y2="73.24"/><line class="cls-6" x1="192.76" y1="83.45" x2="284.13" y2="83.45"/><line class="cls-6" x1="192.76" y1="93.66" x2="284.13" y2="93.66"/><circle class="cls-7" cx="172.92" cy="208.04" r="11.33"/><polygon class="cls-8" points="141.02 95.13 183.5 111.52 169.34 117.11 180.52 127.73 173.63 133.51 162.26 122.33 156.67 138.35 141.02 95.13"/></g></g></svg>