<svg xmlns="http://www.w3.org/2000/svg" viewBox="0 0 512.82 512.91"><defs><style>.cls-1,.cls-3,.cls-4,.cls-5,.cls-6{fill:none;}.cls-2{fill:#cedcc9;}.cls-3,.cls-4,.cls-5,.cls-6{stroke:#cedcc9;stroke-linecap:round;}.cls-3,.cls-4,.cls-6{stroke-miterlimit:10;}.cls-3{stroke-width:11px;}.cls-4{stroke-width:5px;}.cls-5{stroke-linejoin:round;}.cls-5,.cls-6{stroke-width:8px;}</style></defs><title>webdesign</title><g id="Layer_2" data-name="Layer 2"><g id="Layer_1-2" data-name="Layer 1"><path class="cls-1" d="M0,512.91V0H512.82V512.91ZM260.14,179q-65,0-130,0c-25,0-42.07,17-42.08,42q0,79.74,0,159.47c0,25.27,17,42.24,42.4,42.25q129.48,0,259,0c25.32,0,42.36-17,42.38-42.33q.06-79.49,0-159c0-25.61-17-42.44-42.71-42.45Q324.63,179,260.14,179Zm8.72,284c0-7,0-13.26,0-19.56,0-6.74-2.91-10.49-8-10.41s-7.76,3.77-7.77,10.64c0,6.28,0,12.55,0,19.32h-5.91c-10.49,0-21-.06-31.47,0-5.12,0-8.57,3.33-8.6,7.78s3.45,7.89,8.53,7.9c30.3.08,60.6.1,90.89-.1,2.19,0,5.24-1.37,6.32-3.08,1.29-2.05,2.06-6,.94-7.62-1.57-2.33-5.05-4.58-7.8-4.7C293.88,462.73,281.74,463,268.86,463Z"/><path class="cls-2" d="M260.14,179q64.49,0,129,0c25.74,0,42.69,16.84,42.71,42.45q0,79.48,0,159c0,25.3-17.06,42.32-42.38,42.33q-129.48,0-259,0c-25.38,0-42.39-17-42.4-42.25q0-79.74,0-159.47c0-25,17-42,42.08-42Q195.14,179,260.14,179ZM260,407H389.47c16.67,0,26.59-10,26.59-26.82q0-79.49,0-159c0-16.44-10-26.42-26.44-26.42q-129.75,0-259.49,0c-16.42,0-26.29,10-26.3,26.52q0,79.5,0,159c0,16.81,9.89,26.72,26.65,26.72Z"/><path class="cls-2" d="M268.86,463c12.88,0,25-.28,37.13.21,2.75.12,6.23,2.37,7.8,4.7,1.12,1.67.35,5.57-.94,7.62-1.08,1.71-4.13,3.07-6.32,3.08-30.29.2-60.59.18-90.89.1-5.08,0-8.55-3.48-8.53-7.9s3.48-7.73,8.6-7.78c10.49-.1,21,0,31.47,0h5.91c0-6.77,0-13,0-19.32,0-6.87,2.72-10.56,7.77-10.64s8,3.67,8,10.41C268.87,449.75,268.86,456,268.86,463Z"/><path class="cls-1" d="M260,407H130.48c-16.76,0-26.64-9.91-26.65-26.72q0-79.48,0-159c0-16.55,9.88-26.51,26.3-26.52q129.75,0,259.49,0c16.46,0,26.44,10,26.44,26.42q0,79.5,0,159c0,16.81-9.92,26.82-26.59,26.82ZM125.36,214.14V357.35H396.5V214.14Z"/><path class="cls-2" d="M125.36,214.14H396.5V357.35H125.36Zm7.88,7.79V349.6H388.71V221.93Z"/><path class="cls-1" d="M133.24,221.93H388.71V349.6H133.24Z"/><path class="cls-3" d="M80.29,205.08s-34.73-7.85-27.91-48,37.16-31.85,37.16-31.85S67.55,88,100.16,64.52s62.18,16.68,61.42,22.75c0,0,44-25,71.28,12.89s-11.37,71.29-11.37,71.29"/><polygon class="cls-2" points="125.25 107.9 179.48 128.83 161.4 135.97 175.67 149.52 166.87 156.89 152.37 142.62 145.23 163.07 125.25 107.9"/><path class="cls-3" d="M272.62,169.38l14.9-54-22.25-5.46,6.38-21.85,20,5.16S299,40.71,323.85,41s35.8,5.86,39.14,7.38L357.84,68s-15.65-5.79-21.95-2.61c-4.6,2.32-6.58-1.94-13.56,34.47l26.45,5.66-6.12,22-25.79-6.07-12.14,50.69"/><path class="cls-4" d="M385.06,174.89l-11.58,5-6.61-10.47,11.57-6.3S375.69,150.64,376,149s-9.09-2.76-9.09-2.76l4.41-17.64,9.92,2.56s6.62-10.83,9.37-10.83-5-8.82-5-8.82l16.54-8.82,3.31,9.92s10.47-2.2,14.33-1.1l5-11.57,17.09,6.64L438,115.36s10.47,6.06,10.47,8.82l9.92-4.41,8.82,15.72-10.47,4.4s5,10.75,2.21,14.61l11,3.31s-3.86,14.88-6.61,17.64l-9.93-3.32s-6.06,12.13-9.37,12.13l4.41,8.82s-8.27,7.17-9.92,7.17-8.82-9.92-8.82-9.92"/><circle class="cls-4" cx="259.69" cy="387.56" r="11.33"/><polyline class="cls-5" points="226.45 270.31 194.21 291.25 226.45 311"/><polyline class="cls-5" points="292.93 311 325.17 290.05 292.93 270.31"/><line class="cls-6" x1="245.12" y1="315.05" x2="274.26" y2="266.25"/></g></g></svg>