<svg xmlns="http://www.w3.org/2000/svg" viewBox="0 0 817.19 817.33"><defs><style>.cls-1,.cls-4,.cls-5,.cls-6{fill:none;}.cls-2{fill:#fff;}.cls-3{fill:#cedcc9;}.cls-4,.cls-5,.cls-6{stroke:#fff;stroke-linecap:round;}.cls-4,.cls-6{stroke-miterlimit:10;}.cls-4{stroke-width:5px;}.cls-5{stroke-linejoin:round;}.cls-5,.cls-6{stroke-width:8px;}</style></defs><title>webdesign_mix</title><g id="Layer_2" data-name="Layer 2"><g id="Layer_1-2" data-name="Layer 1"><path class="cls-1" d="M0,817.33V0H817.19V817.33ZM414.53,285.25q-103.56,0-207.12,0c-39.89,0-67,27.13-67.06,67q-.07,127.06,0,254.12c0,40.27,27.13,67.31,67.58,67.32q206.33.06,412.65,0c40.35,0,67.5-27.14,67.53-67.44q.09-126.66,0-253.33c0-40.81-27-67.63-68.05-67.64Q517.29,285.2,414.53,285.25Zm13.9,452.56c0-11.1,0-21.13,0-31.16,0-10.74-4.64-16.72-12.74-16.6s-12.36,6-12.38,17c0,10,0,20,0,30.8h-9.42c-16.71,0-33.43-.11-50.14.05-8.16.08-13.65,5.3-13.7,12.41s5.49,12.56,13.58,12.58c48.28.12,96.57.16,144.85-.16,3.48,0,8.34-2.18,10.06-4.92,2.06-3.26,3.29-9.47,1.5-12.14-2.5-3.71-8-7.3-12.43-7.48C468.3,737.36,449,737.81,428.43,737.81Z"/><path class="cls-2" d="M414.53,285.25q102.77,0,205.53,0c41,0,68,26.83,68.05,67.64q.09,126.68,0,253.33c0,40.3-27.18,67.42-67.53,67.44q-206.33.08-412.65,0c-40.45,0-67.56-27-67.58-67.32q-.06-127.07,0-254.12c0-39.84,27.17-66.94,67.06-67Q311,285.18,414.53,285.25Zm-.25,363.32q103.17,0,206.34,0c26.58,0,42.38-15.94,42.39-42.73q0-126.68,0-253.35c0-26.21-15.9-42.1-42.14-42.11H207.37c-26.17,0-41.9,15.88-41.91,42.26q0,126.69,0,253.36c0,26.78,15.75,42.57,42.47,42.57Q311.1,648.59,414.28,648.57Z"/><path class="cls-2" d="M428.43,737.81c20.52,0,39.87-.45,59.17.34,4.39.18,9.93,3.77,12.43,7.48,1.79,2.67.56,8.88-1.5,12.14-1.72,2.74-6.58,4.9-10.06,4.92-48.28.32-96.57.28-144.85.16-8.09,0-13.63-5.55-13.58-12.58s5.54-12.33,13.7-12.41c16.71-.16,33.43-.05,50.14-.05h9.42c0-10.8,0-20.8,0-30.8,0-10.94,4.34-16.83,12.38-17s12.71,5.86,12.74,16.6C428.45,716.68,428.43,726.71,428.43,737.81Z"/><path class="cls-1" d="M414.28,648.57q-103.18,0-206.35,0c-26.72,0-42.46-15.79-42.47-42.57q0-126.68,0-253.36c0-26.38,15.74-42.25,41.91-42.26H620.86c26.24,0,42.14,15.9,42.14,42.11q0,126.67,0,253.35c0,26.79-15.81,42.73-42.39,42.73Q517.45,648.59,414.28,648.57ZM199.76,341.23V569.44H631.83V341.23Z"/><path class="cls-3" d="M199.76,341.23H631.83V569.44H199.76Zm12.56,12.42V557.1h407.1V353.65Z"/><path class="cls-1" d="M212.32,353.65h407.1V557.1H212.32Z"/><path class="cls-4" d="M120.11,312.65s-49.49-11.18-39.77-68.43,52.94-45.38,52.94-45.38S102,145.91,148.4,112.42s88.59,23.77,87.51,32.41c0,0,62.66-35.65,101.55,18.36s-16.21,101.55-16.21,101.55"/><polygon class="cls-3" points="185.3 182.12 253 208.24 230.43 217.15 248.25 234.07 237.26 243.28 219.15 225.47 210.24 251 185.3 182.12"/><path class="cls-4" d="M430.8,266.64,450.85,194l-29.93-7.35,8.58-29.41,26.95,7s9.8-70.66,43.29-70.25,48.19,7.9,52.68,9.94l-6.94,26.41s-21.05-7.78-29.54-3.51c-6.19,3.13-8.85-2.62-18.24,46.39l35.59,7.61-8.23,29.56-34.71-8.17L474,270.33"/><path class="cls-4" d="M627.62,256.38l-14.8,6.34-8.45-13.39,14.79-8.06s-3.52-15.9-3.17-18-11.62-3.52-11.62-3.52L610,197.19l12.69,3.26s8.45-13.83,12-13.83-6.35-11.28-6.35-11.28l21.14-11.27,4.23,12.68s13.39-2.82,18.32-1.41l6.35-14.79L700.2,169l-4.93,11.24s13.39,7.75,13.39,11.27l12.68-5.64L732.61,206l-13.38,5.62s6.34,13.74,2.81,18.68l14.1,4.22s-4.94,19-8.46,22.55L715,252.84s-7.75,15.52-12,15.52l5.64,11.27s-10.57,9.16-12.69,9.16-11.27-12.68-11.27-12.68"/><circle class="cls-4" cx="413.82" cy="617.58" r="18.05"/><polyline class="cls-5" points="360.85 430.74 309.48 464.11 360.85 495.58"/><polyline class="cls-5" points="466.79 495.58 518.16 462.21 466.79 430.74"/><line class="cls-6" x1="390.6" y1="502.04" x2="437.05" y2="424.27"/></g></g></svg>