<svg xmlns="http://www.w3.org/2000/svg" viewBox="0 0 512.82 512.91"><defs><style>.cls-1,.cls-3,.cls-4,.cls-5{fill:none;}.cls-2{fill:#cedcc9;}.cls-3{stroke:#cedcc9;stroke-width:5px;}.cls-3,.cls-4,.cls-5{stroke-linecap:round;}.cls-3,.cls-5{stroke-miterlimit:10;}.cls-4,.cls-5{stroke:#a7bea3;stroke-width:8px;}.cls-4{stroke-linejoin:round;}</style></defs><title>webdesign_1</title><g id="Layer_2" data-name="Layer 2"><g id="Layer_1-2" data-name="Layer 1"><path class="cls-1" d="M0,512.91V0H512.82V512.91ZM260.14,179q-65,0-130,0c-25,0-42.07,17-42.08,42q0,79.74,0,159.47c0,25.27,17,42.24,42.4,42.25q129.48,0,259,0c25.32,0,42.36-17,42.38-42.33q.06-79.49,0-159c0-25.61-17-42.44-42.71-42.45Q324.63,179,260.14,179Zm8.72,284c0-7,0-13.26,0-19.56,0-6.74-2.91-10.49-8-10.41s-7.76,3.77-7.77,10.64c0,6.28,0,12.55,0,19.32h-5.91c-10.49,0-21-.06-31.47,0-5.12,0-8.57,3.33-8.6,7.78s3.45,7.89,8.53,7.9c30.3.08,60.6.1,90.89-.1,2.19,0,5.24-1.37,6.32-3.08,1.29-2.05,2.06-6,.94-7.62-1.57-2.33-5.05-4.58-7.8-4.7C293.88,462.73,281.74,463,268.86,463Z"/><path class="cls-2" d="M260.14,179q64.49,0,129,0c25.74,0,42.69,16.84,42.71,42.45q0,79.48,0,159c0,25.3-17.06,42.32-42.38,42.33q-129.48,0-259,0c-25.38,0-42.39-17-42.4-42.25q0-79.74,0-159.47c0-25,17-42,42.08-42Q195.14,179,260.14,179ZM260,407H389.47c16.67,0,26.59-10,26.59-26.82q0-79.49,0-159c0-16.44-10-26.42-26.44-26.42q-129.75,0-259.49,0c-16.42,0-26.29,10-26.3,26.52q0,79.5,0,159c0,16.81,9.89,26.72,26.65,26.72Z"/><path class="cls-2" d="M268.86,463c12.88,0,25-.28,37.13.21,2.75.12,6.23,2.37,7.8,4.7,1.12,1.67.35,5.57-.94,7.62-1.08,1.71-4.13,3.07-6.32,3.08-30.29.2-60.59.18-90.89.1-5.08,0-8.55-3.48-8.53-7.9s3.48-7.73,8.6-7.78c10.49-.1,21,0,31.47,0h5.91c0-6.77,0-13,0-19.32,0-6.87,2.72-10.56,7.77-10.64s8,3.67,8,10.41C268.87,449.75,268.86,456,268.86,463Z"/><path class="cls-1" d="M260,407H130.48c-16.76,0-26.64-9.91-26.65-26.72q0-79.48,0-159c0-16.55,9.88-26.51,26.3-26.52q129.75,0,259.49,0c16.46,0,26.44,10,26.44,26.42q0,79.5,0,159c0,16.81-9.92,26.82-26.59,26.82ZM125.36,214.14V357.35H396.5V214.14Z"/><path class="cls-2" d="M125.36,214.14H396.5V357.35H125.36Zm7.88,7.79V349.6H388.71V221.93Z"/><path class="cls-1" d="M133.24,221.93H388.71V349.6H133.24Z"/><path class="cls-3" d="M75.37,196.2s-31.05-7-25-42.94,33.22-28.48,33.22-28.48S64,91.56,93.13,70.55,148.72,85.46,148,90.89c0,0,39.32-22.38,63.73,11.52s-10.17,63.73-10.17,63.73"/><polygon class="cls-2" points="116.28 114.29 158.77 130.68 144.6 136.27 155.78 146.89 148.89 152.67 137.53 141.49 131.94 157.51 116.28 114.29"/><path class="cls-3" d="M270.34,167.33l12.59-45.61-18.79-4.61,5.39-18.46L286.44,103s6.15-44.34,27.17-44.08,30.24,5,33.06,6.23l-4.36,16.58s-13.21-4.89-18.54-2.2c-3.88,2-5.55-1.65-11.44,29.11l22.33,4.77L329.5,132l-21.79-5.13-10.25,42.8"/><path class="cls-3" d="M393.86,160.89l-9.29,4-5.3-8.4,9.28-5.06s-2.21-10-2-11.31-7.29-2.21-7.29-2.21l3.53-14.15,8,2.05s5.31-8.68,7.52-8.68-4-7.07-4-7.07L407.57,103l2.65,8s8.4-1.77,11.5-.88l4-9.29,13.7,5.33-3.09,7s8.4,4.86,8.4,7.08l8-3.54,7.08,12.61-8.41,3.53s4,8.62,1.77,11.72l8.85,2.65s-3.1,11.94-5.31,14.15l-8-2.66s-4.86,9.74-7.52,9.74l3.54,7.07s-6.63,5.75-8,5.75-7.07-8-7.07-8"/><circle class="cls-3" cx="259.69" cy="387.56" r="11.33"/><polyline class="cls-4" points="226.45 270.31 194.21 291.25 226.45 311"/><polyline class="cls-4" points="292.93 311 325.17 290.05 292.93 270.31"/><line class="cls-5" x1="245.12" y1="315.05" x2="274.26" y2="266.25"/></g></g></svg>