<?xml version="1.0" standalone="no"?>
<!DOCTYPE svg PUBLIC "-//W3C//DTD SVG 20010904//EN"
 "http://www.w3.org/TR/2001/REC-SVG-20010904/DTD/svg10.dtd">
<svg version="1.0" xmlns="http://www.w3.org/2000/svg"
 width="1019.000000pt" height="1019.000000pt" viewBox="0 0 1019.000000 1019.000000"
 preserveAspectRatio="xMidYMid meet">
<metadata>
Created by potrace 1.11, written by Peter Selinger 2001-2013
</metadata>
<g transform="translate(0.000000,1019.000000) scale(0.100000,-0.100000)"
fill="#000000" stroke="none">
<path d="M4745 10179 c-1112 -76 -2154 -509 -3004 -1248 -161 -140 -414 -397
-550 -561 -773 -925 -1191 -2073 -1191 -3275 0 -1202 418 -2350 1191 -3275
210 -251 514 -544 786 -757 135 -105 440 -309 598 -399 1338 -760 2968 -874
4400 -307 77 30 226 97 330 147 549 266 1008 596 1431 1029 938 959 1454 2223
1454 3562 0 773 -171 1521 -504 2210 -266 549 -596 1008 -1029 1431 -722 706
-1609 1172 -2597 1363 -407 78 -899 108 -1315 80z m185 -5139 l0 -3910 -180 0
-180 0 -2 3123 -3 3124 -550 -1163 c-302 -640 -553 -1163 -556 -1164 -6 0
-1488 3012 -1496 3040 -3 11 40 37 152 93 l156 77 68 -142 c140 -292 1102
-2243 1110 -2251 6 -6 667 1378 1423 2981 27 56 51 102 53 102 3 0 5 -1759 5
-3910z m2744 3193 c3 -65 9 -143 12 -174 l6 -56 -71 -7 c-465 -46 -1064 -407
-1333 -804 -190 -281 -197 -521 -21 -695 236 -233 691 -358 1443 -397 118 -7
216 -13 218 -15 4 -4 -2097 -5008 -2106 -5016 -5 -5 -302 112 -320 126 -2 2
427 1027 952 2278 526 1251 956 2279 956 2285 0 5 -35 12 -77 16 -138 12 -398
56 -540 91 -359 88 -598 207 -774 384 -96 97 -155 188 -196 306 -26 75 -28 90
-28 240 1 159 1 161 38 270 74 215 186 384 392 590 202 203 394 341 654 470
247 123 570 221 742 224 l46 1 7 -117z"/>
</g>
</svg>
